<svg width="146" height="110" viewBox="0 0 146 110" fill="none" xmlns="http://www.w3.org/2000/svg">
<g clip-path="url(#clip0_255_3542)">
<mask id="mask0_255_3542" style="mask-type:luminance" maskUnits="userSpaceOnUse" x="4" y="43" width="41" height="24">
<path d="M4.51724 55.6743C21.1314 54.9378 21.9707 66.5046 32.5063 66.0377C43.0419 65.5707 44.6829 54.2514 44.6829 54.2514C44.6829 54.2514 41.9617 43.1255 31.4256 43.5923C20.89 44.0592 21.1314 54.9378 4.51724 55.6743Z" fill="white"/>
</mask>
<g mask="url(#mask0_255_3542)">
<path d="M4.51709 55.6738L5.08296 60.0847L3.12353 59.3398L4.51709 55.6738Z" fill="#EC1C24"/>
<path d="M4.69043 55.2183L5.32692 60.1777L5.08299 60.085L4.51712 55.6742L4.69043 55.2183Z" fill="#EC1C24"/>
<path d="M4.86377 54.7617L5.5707 60.2703L5.32677 60.1776L4.69028 55.2181L4.86377 54.7617Z" fill="#EC1C24"/>
<path d="M5.03711 54.3057L5.8142 60.3627L5.57074 60.2702L4.8638 54.7616L5.03711 54.3057Z" fill="#EC1C24"/>
<path d="M5.21045 53.8501L6.05816 60.4558L5.81423 60.3631L5.03714 54.306L5.21045 53.8501Z" fill="#EC1C24"/>
<path d="M5.38379 53.3936L6.30195 60.5484L6.05802 60.4556L5.2103 53.8499L5.38379 53.3936Z" fill="#EC1C24"/>
<path d="M5.55713 52.9375L6.54544 60.6408L6.30198 60.5482L5.38382 53.3934L5.55713 52.9375Z" fill="#EC1C24"/>
<path d="M5.73047 52.4819L6.7894 60.7339L6.54547 60.6411L5.55716 52.9379L5.73047 52.4819Z" fill="#EC1D24"/>
<path d="M5.90381 52.0259L7.03337 60.8264L6.78943 60.7337L5.7305 52.4818L5.90381 52.0259Z" fill="#EC1D24"/>
<path d="M6.07764 51.5693L7.27717 60.9188L7.03371 60.8263L5.90415 52.0257L6.07764 51.5693Z" fill="#EC1D24"/>
<path d="M6.25049 51.1133L7.52065 61.0114L7.27672 60.9187L6.07718 51.5692L6.25049 51.1133Z" fill="#EC1D24"/>
<path d="M6.42383 50.6577L7.76461 61.1045L7.52068 61.0118L6.25052 51.1136L6.42383 50.6577Z" fill="#EC1D24"/>
<path d="M6.59717 50.2017L8.0081 61.1969L7.76464 61.1044L6.42386 50.6576L6.59717 50.2017Z" fill="#EC1E24"/>
<path d="M6.771 49.7451L8.25238 61.2895L8.00845 61.1968L6.59751 50.2015L6.771 49.7451Z" fill="#EC1E24"/>
<path d="M6.94434 49.2896L8.49634 61.3826L8.25241 61.2898L6.77103 49.7455L6.94434 49.2896Z" fill="#EC1E24"/>
<path d="M7.11768 48.8335L8.73984 61.475L8.49637 61.3824L6.94437 49.2894L7.11768 48.8335Z" fill="#EC1F24"/>
<path d="M7.29102 48.377L8.98362 61.5675L8.73969 61.4748L7.11753 48.8333L7.29102 48.377Z" fill="#EC1F24"/>
<path d="M7.46436 47.9209L9.22758 61.6601L8.98365 61.5674L7.29105 48.3768L7.46436 47.9209Z" fill="#EC1F24"/>
<path d="M7.6377 47.4653L9.47108 61.753L9.22761 61.6605L7.46439 47.9213L7.6377 47.4653Z" fill="#EC2024"/>
<path d="M7.81104 47.0093L9.71504 61.8456L9.47111 61.7529L7.63773 47.4652L7.81104 47.0093Z" fill="#EC2024"/>
<path d="M7.98438 46.5527L9.95883 61.9382L9.7149 61.8455L7.81089 47.0091L7.98438 46.5527Z" fill="#EC2024"/>
<path d="M8.15771 46.0972L10.2023 62.0311L9.95886 61.9385L7.98441 46.5531L8.15771 46.0972Z" fill="#ED2124"/>
<path d="M8.33105 45.6411L10.4463 62.1237L10.2024 62.0309L8.15775 46.097L8.33105 45.6411Z" fill="#ED2124"/>
<path d="M8.50439 45.1846L10.6901 62.2162L10.4461 62.1235L8.33091 45.641L8.50439 45.1846Z" fill="#ED2124"/>
<path d="M8.54229 45.0857L8.72097 45.0634L10.9338 62.3088L10.6904 62.2163L8.50468 45.1846L8.54229 45.0857Z" fill="#ED2224"/>
<path d="M8.72065 45.0632L8.94877 45.0351L11.1774 62.4014L10.9335 62.3087L8.72065 45.0632Z" fill="#ED2224"/>
<path d="M8.94899 45.0354L9.17729 45.0068L11.4216 62.4944L11.1776 62.4017L8.94899 45.0354Z" fill="#ED2324"/>
<path d="M9.17719 45.0066L9.40532 44.9785L11.6649 62.5867L11.4215 62.4942L9.17719 45.0066Z" fill="#ED2324"/>
<path d="M9.40522 44.9787L9.63334 44.9506L11.9088 62.6798L11.6648 62.587L9.40522 44.9787Z" fill="#ED2424"/>
<path d="M9.63356 44.9504L9.86186 44.9218L12.1529 62.7722L11.909 62.6795L9.63356 44.9504Z" fill="#ED2424"/>
<path d="M9.86176 44.9221L10.0899 44.894L12.3963 62.8651L12.1528 62.7725L9.86176 44.9221Z" fill="#ED2524"/>
<path d="M10.0896 44.8938L10.3179 44.8652L12.6399 62.9576L12.396 62.8648L10.0896 44.8938Z" fill="#ED2524"/>
<path d="M10.3183 44.8655L10.5469 44.8375L12.8843 63.0506L12.6403 62.9578L10.3183 44.8655Z" fill="#ED2624"/>
<path d="M10.5466 44.8371L10.7749 44.8085L13.1275 63.1427L12.884 63.0502L10.5466 44.8371Z" fill="#ED2624"/>
<path d="M10.7749 44.8088L11.003 44.7807L13.3713 63.2357L13.1274 63.143L10.7749 44.8088Z" fill="#ED2724"/>
<path d="M11.0034 44.7805L11.2315 44.7524L13.6156 63.3282L13.3717 63.2355L11.0034 44.7805Z" fill="#ED2724"/>
<path d="M11.2312 44.7527L11.4595 44.7241L13.8588 63.421L13.6154 63.3285L11.2312 44.7527Z" fill="#ED2824"/>
<path d="M11.4594 44.7239L11.6875 44.6958L14.1027 63.5136L13.8587 63.4208L11.4594 44.7239Z" fill="#ED2824"/>
<path d="M11.6878 44.696L11.9161 44.6674L14.3468 63.6065L14.1029 63.5138L11.6878 44.696Z" fill="#ED2924"/>
<path d="M11.916 44.6672L12.1441 44.6391L14.5902 63.6989L14.3467 63.6063L11.916 44.6672Z" fill="#ED2A24"/>
<path d="M12.1443 44.6394L12.3726 44.6108L14.8343 63.7919L14.5904 63.6991L12.1443 44.6394Z" fill="#EE2A24"/>
<path d="M12.3725 44.6106L12.6011 44.5827L15.0782 63.8844L14.8342 63.7916L12.3725 44.6106Z" fill="#EE2B24"/>
<path d="M12.601 44.5828L12.8291 44.5546L15.322 63.9772L15.0781 63.8845L12.601 44.5828Z" fill="#EE2B24"/>
<path d="M12.8294 44.5544L13.0577 44.5258L15.5657 64.0695L15.3222 63.977L12.8294 44.5544Z" fill="#EE2C24"/>
<path d="M13.0576 44.5261L13.2857 44.498L15.8095 64.1625L15.5656 64.0698L13.0576 44.5261Z" fill="#EE2D24"/>
<path d="M13.2854 44.4978L13.5137 44.4692L16.0532 64.255L15.8093 64.1623L13.2854 44.4978Z" fill="#EE2D24"/>
<path d="M13.5136 44.4695L13.7417 44.4414L16.2965 64.3478L16.0531 64.2553L13.5136 44.4695Z" fill="#EE2E24"/>
<path d="M13.742 44.4411L13.9703 44.4126L16.5407 64.4403L16.2968 64.3476L13.742 44.4411Z" fill="#EE2F24"/>
<path d="M13.9702 44.4123L14.1983 44.3842L16.7845 64.5328L16.5406 64.4401L13.9702 44.4123Z" fill="#EE2F24"/>
<path d="M14.1982 44.3845L14.4268 44.3566L17.0279 64.6257L16.7844 64.5331L14.1982 44.3845Z" fill="#EE3024"/>
<path d="M14.427 44.3567L14.6553 44.3281L17.2721 64.7185L17.0281 64.6258L14.427 44.3567Z" fill="#EE3124"/>
<path d="M14.6552 44.3279L14.8833 44.2998L17.5159 64.811L17.272 64.7183L14.6552 44.3279Z" fill="#EE3224"/>
<path d="M14.8836 44.3L15.1119 44.2714L17.7596 64.9038L17.5161 64.8113L14.8836 44.3Z" fill="#EE3225"/>
<path d="M15.1118 44.2712L15.3399 44.2431L18.0034 64.9963L17.7595 64.9036L15.1118 44.2712Z" fill="#EF3325"/>
<path d="M15.3398 44.2434L15.5679 44.2153L18.2472 65.0893L18.0033 64.9966L15.3398 44.2434Z" fill="#EF3425"/>
<path d="M15.5681 44.2151L15.7964 44.1865L18.4909 65.1816L18.2475 65.0891L15.5681 44.2151Z" fill="#EF3525"/>
<path d="M15.7963 44.1863L16.0245 44.1582L18.7348 65.2742L18.4908 65.1814L15.7963 44.1863Z" fill="#EF3525"/>
<path d="M16.0242 44.1584L16.253 44.13L18.9784 65.3671L18.7345 65.2744L16.0242 44.1584Z" fill="#EF3625"/>
<path d="M16.2534 44.1301L16.4815 44.102L19.2223 65.4598L18.9788 65.3672L16.2534 44.1301Z" fill="#EF3725"/>
<path d="M16.4812 44.1018L16.7095 44.0732L19.4659 65.5523L19.222 65.4596L16.4812 44.1018Z" fill="#EF3825"/>
<path d="M16.7094 44.0735L16.9375 44.0454L19.7098 65.6453L19.4658 65.5526L16.7094 44.0735Z" fill="#EF3925"/>
<path d="M16.9379 44.0452L17.1661 44.017L19.9536 65.7376L19.7102 65.6451L16.9379 44.0452Z" fill="#EF3925"/>
<path d="M17.1658 44.0173L17.3941 43.9887L20.1973 65.8306L19.9534 65.7379L17.1658 44.0173Z" fill="#EF3A25"/>
<path d="M17.394 43.9885L17.6221 43.9604L20.4411 65.9231L20.1972 65.8304L17.394 43.9885Z" fill="#EF3B25"/>
<path d="M17.6223 43.9602L17.8506 43.9316L20.6848 66.0154L20.4413 65.9229L17.6223 43.9602Z" fill="#EF3C25"/>
<path d="M17.8505 43.9319L18.0787 43.9038L20.9286 66.1084L20.6847 66.0157L17.8505 43.9319Z" fill="#F03D25"/>
<path d="M18.0789 43.9035L18.3076 43.8751L21.1728 66.2009L20.9289 66.1082L18.0789 43.9035Z" fill="#F03E25"/>
<path d="M18.3076 43.8752L18.5357 43.8471L21.4162 66.2936L21.1727 66.201L18.3076 43.8752Z" fill="#F03E25"/>
<path d="M18.5356 43.8474L18.7637 43.8193L21.66 66.3866L21.4161 66.2939L18.5356 43.8474Z" fill="#F03F25"/>
<path d="M18.7639 43.8191L18.9922 43.7905L21.9042 66.4791L21.6602 66.3864L18.7639 43.8191Z" fill="#F04025"/>
<path d="M18.9921 43.7903L19.2203 43.7622L22.1475 66.5714L21.9041 66.4789L18.9921 43.7903Z" fill="#F04125"/>
<path d="M19.22 43.7624L19.4483 43.7338L22.3912 66.6644L22.1472 66.5717L19.22 43.7624Z" fill="#F04225"/>
<path d="M19.4487 43.7336L19.6768 43.7055L22.6355 66.7569L22.3916 66.6642L19.4487 43.7336Z" fill="#F04325"/>
<path d="M19.6765 43.7058L19.9048 43.6772L22.8787 66.8497L22.6352 66.7572L19.6765 43.7058Z" fill="#F04425"/>
<path d="M19.9047 43.677L20.1333 43.6491L23.1225 66.9422L22.8786 66.8495L19.9047 43.677Z" fill="#F04525"/>
<path d="M20.1332 43.6492L20.3614 43.621L23.3664 67.0351L23.1224 66.9423L20.1332 43.6492Z" fill="#F14625"/>
<path d="M20.3616 43.6213L20.5899 43.5927L23.6101 67.1279L23.3666 67.0353L20.3616 43.6213Z" fill="#F14725"/>
<path d="M20.5898 43.5925L20.8179 43.5644L23.8539 67.2204L23.61 67.1277L20.5898 43.5925Z" fill="#F14825"/>
<path d="M20.8181 43.5642L21.0464 43.5356L24.098 67.3129L23.8541 67.2202L20.8181 43.5642Z" fill="#F14925"/>
<path d="M21.0463 43.5359L21.2745 43.5078L24.3414 67.4057L24.0979 67.3132L21.0463 43.5359Z" fill="#F14A25"/>
<path d="M21.2747 43.5075L21.503 43.479L24.5855 67.4982L24.3416 67.4055L21.2747 43.5075Z" fill="#F14B25"/>
<path d="M21.5029 43.4792L21.731 43.4511L24.8294 67.5912L24.5855 67.4985L21.5029 43.4792Z" fill="#F14C25"/>
<path d="M21.7309 43.4509L21.9595 43.423L25.0732 67.6837L24.8293 67.591L21.7309 43.4509Z" fill="#F14D25"/>
<path d="M21.9592 43.4231L22.1875 43.3945L25.3164 67.7763L25.073 67.6838L21.9592 43.4231Z" fill="#F14E25"/>
<path d="M22.1879 43.3943L22.4161 43.3662L25.5608 67.8689L25.3168 67.7761L22.1879 43.3943Z" fill="#F24F25"/>
<path d="M22.4158 43.3664L22.6441 43.3378L25.8044 67.9619L25.5605 67.8691L22.4158 43.3664Z" fill="#F25025"/>
<path d="M22.644 43.3376L22.8721 43.3095L26.0478 68.0542L25.8043 67.9616L22.644 43.3376Z" fill="#F25125"/>
<path d="M22.8723 43.3098L23.1006 43.2812L26.2919 68.1472L26.048 68.0544L22.8723 43.3098Z" fill="#F25225"/>
<path d="M23.1005 43.281L23.3287 43.2529L26.5205 68.1217L26.2975 68.1491L26.2918 68.147L23.1005 43.281Z" fill="#F25325"/>
<path d="M23.557 43.2251L23.3286 43.2534L26.5193 68.1219L26.7476 68.0936L23.557 43.2251Z" fill="#F25425"/>
<path d="M23.784 43.1978L23.5557 43.2261L26.7463 68.0946L26.9746 68.0663L23.784 43.1978Z" fill="#F25525"/>
<path d="M24.013 43.1685L23.7847 43.1968L26.9753 68.0653L27.2036 68.037L24.013 43.1685Z" fill="#F25625"/>
<path d="M24.2401 43.1411L24.0117 43.1694L27.2024 68.0379L27.4307 68.0096L24.2401 43.1411Z" fill="#F25725"/>
<path d="M24.4681 43.1128L24.2397 43.1411L27.4304 68.0096L27.6587 67.9813L24.4681 43.1128Z" fill="#F35825"/>
<path d="M24.6971 43.0845L24.4688 43.1128L27.6594 67.9813L27.8877 67.953L24.6971 43.0845Z" fill="#F35925"/>
<path d="M24.9251 43.0562L24.6968 43.0845L27.8874 67.953L28.1158 67.9247L24.9251 43.0562Z" fill="#F35A25"/>
<path d="M25.1541 43.0274L24.9258 43.0557L28.1164 67.9242L28.3448 67.8959L25.1541 43.0274Z" fill="#F35C25"/>
<path d="M25.3817 43L25.1533 43.0283L28.344 67.8968L28.5723 67.8685L25.3817 43Z" fill="#F35D25"/>
<path d="M25.6097 42.9712L25.3813 42.9995L28.572 67.868L28.8003 67.8397L25.6097 42.9712Z" fill="#F35E26"/>
<path d="M25.8387 42.9424L25.6104 42.9707L28.801 67.8392L29.0293 67.8109L25.8387 42.9424Z" fill="#F35F26"/>
<path d="M26.0662 42.9151L25.8379 42.9434L29.0285 67.8118L29.2569 67.7836L26.0662 42.9151Z" fill="#F36026"/>
<path d="M26.2957 42.8863L26.0674 42.9146L29.258 67.783L29.4864 67.7547L26.2957 42.8863Z" fill="#F46126"/>
<path d="M26.5228 42.8584L26.2944 42.8867L29.4851 67.7552L29.7134 67.7269L26.5228 42.8584Z" fill="#F46226"/>
<path d="M26.7508 42.8301L26.5225 42.8584L29.7131 67.7269L29.9414 67.6986L26.7508 42.8301Z" fill="#F46426"/>
<path d="M26.9798 42.8013L26.7515 42.8296L29.9421 67.6981L30.1704 67.6698L26.9798 42.8013Z" fill="#F46526"/>
<path d="M27.2069 42.7735L26.9785 42.8018L30.1692 67.6702L30.3975 67.642L27.2069 42.7735Z" fill="#F46626"/>
<path d="M27.4368 42.7447L27.2085 42.7729L30.3991 67.6414L30.6275 67.6131L27.4368 42.7447Z" fill="#F46726"/>
<path d="M27.6644 42.7168L27.436 42.7451L30.6267 67.6136L30.855 67.5853L27.6644 42.7168Z" fill="#F46826"/>
<path d="M27.8924 42.689L27.6641 42.7173L30.8547 67.5858L31.083 67.5575L27.8924 42.689Z" fill="#F46A26"/>
<path d="M28.1214 42.6597L27.8931 42.688L31.0837 67.5565L31.312 67.5282L28.1214 42.6597Z" fill="#F56B26"/>
<path d="M28.3485 42.6324L28.1201 42.6606L31.3108 67.5291L31.5391 67.5008L28.3485 42.6324Z" fill="#F56C26"/>
<path d="M28.5779 42.6035L28.3496 42.6318L31.5402 67.5003L31.7686 67.472L28.5779 42.6035Z" fill="#F56D26"/>
<path d="M28.805 42.5757L28.5767 42.604L31.7673 67.4725L31.9956 67.4442L28.805 42.5757Z" fill="#F56F26"/>
<path d="M29.0335 42.5474L28.8052 42.5757L31.9958 67.4442L32.2242 67.4159L29.0335 42.5474Z" fill="#F57026"/>
<path d="M29.263 42.5181L29.0347 42.5464L32.2253 67.4149L32.4536 67.3866L29.263 42.5181Z" fill="#F57126"/>
<path d="M29.4901 42.4908L29.2617 42.519L32.4524 67.3875L32.6807 67.3592L29.4901 42.4908Z" fill="#F57226"/>
<path d="M29.7195 42.4615L29.4912 42.4897L32.6819 67.3582L32.9102 67.3299L29.7195 42.4615Z" fill="#F67426"/>
<path d="M29.9466 42.4341L29.7183 42.4624L32.9089 67.3309L33.1372 67.3026L29.9466 42.4341Z" fill="#F67526"/>
<path d="M30.1751 42.4063L29.9468 42.4346L33.1374 67.3031L33.3658 67.2748L30.1751 42.4063Z" fill="#F67626"/>
<path d="M30.4041 42.377L30.1758 42.4053L33.3664 67.2738L33.5948 67.2455L30.4041 42.377Z" fill="#F67726"/>
<path d="M30.6312 42.3496L30.4028 42.3779L33.5935 67.2464L33.8218 67.2181L30.6312 42.3496Z" fill="#F67926"/>
<path d="M30.8607 42.3203L30.6323 42.3486L33.823 67.2171L34.0513 67.1888L30.8607 42.3203Z" fill="#F67A26"/>
<path d="M31.0882 42.293L30.8599 42.3213L34.0505 67.1898L34.2788 67.1615L31.0882 42.293Z" fill="#F67B26"/>
<path d="M31.3162 42.2647L31.0879 42.293L34.2785 67.1615L34.5069 67.1332L31.3162 42.2647Z" fill="#F77D26"/>
<path d="M31.5457 42.2359L31.3174 42.2642L34.508 67.1326L34.7364 67.1044L31.5457 42.2359Z" fill="#F77E26"/>
<path d="M31.7728 42.2085L31.5444 42.2368L34.7351 67.1053L34.9634 67.077L31.7728 42.2085Z" fill="#F77F26"/>
<path d="M32.0018 42.1792L31.7734 42.2075L34.9641 67.076L35.1924 67.0477L32.0018 42.1792Z" fill="#F78126"/>
<path d="M32.2293 42.1514L32.001 42.1797L35.1916 67.0482L35.42 67.0199L32.2293 42.1514Z" fill="#F78226"/>
<path d="M32.4578 42.1226L32.2295 42.1509L35.4201 67.0194L35.6485 66.9911L32.4578 42.1226Z" fill="#F78426"/>
<path d="M32.6863 42.0943L32.458 42.1226L35.6486 66.991L35.877 66.9628L32.6863 42.0943Z" fill="#F78526"/>
<path d="M32.9139 42.0659L32.6855 42.0942L35.8762 66.9627L36.1045 66.9344L32.9139 42.0659Z" fill="#F88626"/>
<path d="M33.1429 42.0376L32.9146 42.0659L36.1052 66.9344L36.3335 66.9061L33.1429 42.0376Z" fill="#F88826"/>
<path d="M33.3709 42.0098L33.1426 42.0381L36.3332 66.9066L36.5616 66.8783L33.3709 42.0098Z" fill="#F88927"/>
<path d="M33.5994 41.9815L33.3711 42.0098L36.5617 66.8783L36.7901 66.85L33.5994 41.9815Z" fill="#F88A27"/>
<path d="M33.8279 41.9532L33.5996 41.9814L36.7902 66.8499L37.0186 66.8216L33.8279 41.9532Z" fill="#F88C27"/>
<path d="M34.0555 41.9248L33.8271 41.9531L37.0178 66.8216L37.2461 66.7933L34.0555 41.9248Z" fill="#F88D27"/>
<path d="M34.284 41.8965L34.0557 41.9248L37.2463 66.7933L37.4746 66.765L34.284 41.8965Z" fill="#F98F27"/>
<path d="M34.512 41.8682L34.2837 41.8965L37.4743 66.765L37.7027 66.7367L34.512 41.8682Z" fill="#F99027"/>
<path d="M34.7401 41.8399L34.5117 41.8682L37.7024 66.7367L37.9307 66.7084L34.7401 41.8399Z" fill="#F99227"/>
<path d="M34.9695 41.8111L34.7412 41.8394L37.9319 66.7078L38.1602 66.6796L34.9695 41.8111Z" fill="#F99327"/>
<path d="M35.1971 41.7837L34.9688 41.812L38.1594 66.6805L38.3877 66.6522L35.1971 41.7837Z" fill="#F99427"/>
<path d="M35.4261 41.7544L35.1978 41.7827L38.3884 66.6512L38.6167 66.6229L35.4261 41.7544Z" fill="#F99627"/>
<path d="M35.6536 41.7271L35.4253 41.7554L38.6159 66.6239L38.8443 66.5956L35.6536 41.7271Z" fill="#F99727"/>
<path d="M35.8821 41.6978L35.6538 41.7261L38.8444 66.5946L39.0728 66.5663L35.8821 41.6978Z" fill="#FA9927"/>
<path d="M36.1097 41.6709L35.8813 41.6992L39.072 66.5677L39.3003 66.5394L36.1097 41.6709Z" fill="#FA9A27"/>
<path d="M36.3377 41.6421L36.1094 41.6704L39.3 66.5389L39.5284 66.5106L36.3377 41.6421Z" fill="#FA9C27"/>
<path d="M36.5672 41.6133L36.3389 41.6416L39.5295 66.5101L39.7578 66.4818L36.5672 41.6133Z" fill="#FA9D27"/>
<path d="M36.7952 41.5855L36.5669 41.6138L39.7575 66.4823L39.9859 66.454L36.7952 41.5855Z" fill="#FA9F27"/>
<path d="M37.0237 41.5567L36.7954 41.585L39.9861 66.4534L40.2144 66.4252L37.0237 41.5567Z" fill="#FAA027"/>
<path d="M37.2513 41.5288L37.0229 41.5571L40.2136 66.4256L40.4419 66.3973L37.2513 41.5288Z" fill="#FBA227"/>
<path d="M37.4793 41.5005L37.251 41.5288L40.4416 66.3973L40.67 66.369L37.4793 41.5005Z" fill="#FBA327"/>
<path d="M37.4806 41.4993L37.6339 41.4801L37.7137 41.5105L40.9003 66.3394L40.6721 66.3675L37.4806 41.4993Z" fill="#FBA527"/>
<path d="M37.9578 41.6035L41.1287 66.3111L40.9004 66.3397L37.7139 41.5107L37.9578 41.6035Z" fill="#FBA627"/>
<path d="M38.2015 41.6962L41.3566 66.283L41.1285 66.3111L37.9575 41.6035L38.2015 41.6962Z" fill="#FBA827"/>
<path d="M38.4451 41.7888L41.5856 66.2547L41.3568 66.2831L38.2017 41.6963L38.4451 41.7888Z" fill="#FBAA27"/>
<path d="M38.6892 41.8813L41.8139 66.2263L41.5858 66.2544L38.4453 41.7886L38.6892 41.8813Z" fill="#FCAB27"/>
<path d="M38.9329 41.9741L42.0417 66.1982L41.8136 66.2264L38.689 41.8813L38.9329 41.9741Z" fill="#FCAD27"/>
<path d="M39.1766 42.0667L42.2702 66.1697L42.0419 66.1983L38.9331 41.9741L39.1766 42.0667Z" fill="#FCAE27"/>
<path d="M39.4202 42.1591L42.4981 66.1413L42.2699 66.1694L39.1763 42.0664L39.4202 42.1591Z" fill="#FCB027"/>
<path d="M39.6643 42.2519L42.7266 66.1128L42.4983 66.1414L39.4204 42.1592L39.6643 42.2519Z" fill="#FCB127"/>
<path d="M39.908 42.3445L42.9276 65.8714L42.8412 66.0987L42.7268 66.1129L39.6646 42.252L39.908 42.3445Z" fill="#FCB327"/>
<path d="M40.1516 42.4375L43.1006 65.4157L42.9273 65.8716L39.9077 42.3447L40.1516 42.4375Z" fill="#FDB528"/>
<path d="M40.3958 42.5302L43.2741 64.9598L43.1008 65.4158L40.1519 42.4375L40.3958 42.5302Z" fill="#FDB628"/>
<path d="M40.639 42.6228L43.4473 64.5035L43.2738 64.9599L40.3955 42.5303L40.639 42.6228Z" fill="#FDB828"/>
<path d="M40.8831 42.7153L43.6208 64.0473L43.4475 64.5032L40.6392 42.6226L40.8831 42.7153Z" fill="#FDB928"/>
<path d="M41.1272 42.8081L43.7943 63.5915L43.621 64.0474L40.8833 42.7153L41.1272 42.8081Z" fill="#FDBB28"/>
<path d="M41.3709 42.9008L43.9675 63.1351L43.794 63.5915L41.127 42.8081L41.3709 42.9008Z" fill="#FEBD28"/>
<path d="M41.6146 42.9934L44.141 62.6792L43.9677 63.1352L41.3711 42.9009L41.6146 42.9934Z" fill="#FEBE28"/>
<path d="M41.8582 43.0859L44.314 62.2231L44.1407 62.679L41.6143 42.9932L41.8582 43.0859Z" fill="#FEC028"/>
<path d="M42.1023 43.1787L44.4876 61.7672L44.3143 62.2231L41.8584 43.0859L42.1023 43.1787Z" fill="#FEC228"/>
<path d="M42.3455 43.2713L44.6608 61.3109L44.4873 61.7672L42.1021 43.1787L42.3455 43.2713Z" fill="#FEC328"/>
<path d="M42.5896 43.3642L44.8343 60.8552L44.661 61.3111L42.3457 43.2715L42.5896 43.3642Z" fill="#FEC528"/>
<path d="M42.8338 43.457L45.0078 60.3993L44.8345 60.8552L42.5898 43.3643L42.8338 43.457Z" fill="#FFC728"/>
<path d="M43.077 43.5491L45.181 59.9425L45.0075 60.3989L42.8335 43.4565L43.077 43.5491Z" fill="#FFC828"/>
<path d="M43.3211 43.642L45.3545 59.4868L45.1812 59.9427L43.0771 43.5493L43.3211 43.642Z" fill="#FFCA28"/>
<path d="M45.3542 59.4868L43.3208 43.6421L50.3601 46.318L45.3542 59.4868Z" fill="#FFCA28"/>
</g>
<g opacity="0.5">
<path d="M11.8417 56.2674C20.5961 53.0853 22.1347 46.0648 30.5537 45.6916C41.0893 45.2247 43.811 56.3508 43.811 56.3508C43.811 56.3508 43.6609 57.3827 43.1626 58.8361C44.374 56.3837 44.6838 54.2509 44.6838 54.2509C44.6838 54.2509 41.9626 43.125 31.4266 43.5918C20.8905 44.0585 21.1323 54.9373 4.51822 55.6738C7.3862 55.5468 9.78345 55.7867 11.8422 56.2676L11.8417 56.2674Z" fill="white"/>
</g>
<g opacity="0.3">
<path d="M41.9906 60.829C40.3018 62.0953 38.111 63.0084 35.2742 63.1339C26.5603 63.52 24.4792 55.6747 14.6199 53.3668C12.081 54.5871 8.88123 55.4809 4.51747 55.6743C21.1321 54.938 21.9709 66.5047 32.5065 66.0377C37.2515 65.8274 40.1915 63.4163 41.9906 60.829Z" fill="#371A45"/>
</g>
<path d="M17.5907 55.3073C27.2634 54.8787 30.7117 62.7347 36.8454 62.4626C42.9791 62.1906 43.8635 54.1311 43.8635 54.1311C43.8635 54.1311 42.2087 46.184 36.0746 46.4559C29.9409 46.7279 27.2629 54.8785 17.5907 55.3073Z" fill="#FFD553"/>
<path d="M27.2941 66.0398C25.0649 65.1924 23.2102 63.8022 21.292 62.3643C17.4108 59.4549 13.0115 56.1585 4.05853 56.5551C3.6042 56.5752 3.21882 56.2247 3.19706 55.7721C3.19151 55.6568 3.21025 55.5453 3.24892 55.4436C3.36138 55.1477 3.64209 54.9319 3.98018 54.9167C12.9457 54.5195 17.0212 51.0366 20.6167 47.9635C23.6076 45.4073 26.433 42.9927 31.3871 42.7732C35.9841 42.5691 39.8858 44.4683 42.6702 48.2645C44.7406 51.0874 45.4543 53.9399 45.4838 54.0601C45.5089 54.162 45.5139 54.2675 45.4986 54.3712C45.4812 54.4933 45.0447 57.3973 43.2545 60.3907C40.8468 64.4168 37.1443 66.6529 32.5472 66.8569C30.5273 66.9463 28.8235 66.6207 27.2957 66.0399L27.2941 66.0398ZM14.4889 56.4018C17.698 57.6216 20.0675 59.3977 22.2788 61.0549C25.398 63.3926 28.0923 65.4118 32.4668 65.2182C41.5625 64.8149 43.5979 55.5976 43.8411 54.2854C43.4662 52.93 40.6427 44.0041 31.4649 44.4114C27.0776 44.606 24.581 46.7391 21.6908 49.2098C19.0052 51.505 16.0667 54.0165 11.2038 55.4398C12.3954 55.6919 13.4832 56.0194 14.4894 56.4019L14.4889 56.4018Z" fill="#371A45"/>
<path d="M52.006 67.7585L47.9777 66.9013C46.1553 66.5135 44.6905 65.1609 44.1639 63.3798C42.5952 58.0761 42.5123 52.4512 43.9238 47.1139C44.3978 45.3217 45.8224 43.9368 47.6325 43.5082L51.6343 42.5608" fill="#00AAFF"/>
<g opacity="0.6">
<path d="M51.4851 44.9883L47.5223 45.9264C46.5234 46.163 45.6292 46.6637 44.9183 47.3532C44.2094 48.043 43.6831 48.9218 43.4222 49.9132C43.2198 50.6774 43.0459 51.4482 42.8991 52.2229C43.0582 50.6603 43.3406 49.1083 43.7455 47.5798C43.9816 46.6847 44.4564 45.8889 45.1 45.2651C45.7399 44.641 46.5483 44.1894 47.4543 43.9741L51.4563 43.0274L51.4853 44.9878L51.4851 44.9883Z" fill="white"/>
</g>
<g opacity="0.35">
<path d="M43.326 55.8999C43.5172 57.7329 43.8756 59.5526 44.4027 61.3354C44.9289 63.1163 46.3938 64.4685 48.2169 64.856L51.9735 65.6554L51.6329 42.5609L50.7785 42.7633L51.032 59.884L47.0021 59.0267C45.3177 58.6684 43.9402 57.4846 43.3255 55.8997L43.326 55.8999ZM51.0012 57.7814L50.7785 42.7633L51.0483 42.6992L51.2724 57.8391L51.0007 57.7812L51.0012 57.7814Z" fill="#371A45"/>
</g>
<path d="M63.2103 40.3065C62.6978 35.7002 57.8596 28.0235 41.3301 31.3707C41.1131 31.4148 41.0641 31.7032 41.254 31.8165C43.3228 33.0532 53.0861 38.7887 52.9446 44.9137" fill="#8A43BA"/>
<g opacity="0.6">
<path d="M43.3483 32.8201C42.4692 32.253 41.7531 31.8291 41.3433 31.5836C41.1526 31.4695 41.2022 31.1823 41.4187 31.1381C57.9489 27.7906 62.7867 35.4671 63.2995 40.0741L62.1876 40.5727C60.8792 36.317 56.0075 31.0363 43.3488 32.8203L43.3483 32.8201Z" fill="white"/>
</g>
<path d="M52.6087 45.7981C52.2424 45.6588 51.9858 45.3012 51.9953 44.8893C52.0428 42.842 50.6599 38.534 40.8657 32.6863L40.7678 32.6277C40.3422 32.373 40.121 31.8943 40.2035 31.4075C40.2859 30.9208 40.6531 30.5424 41.1382 30.4442C49.1738 28.817 55.3683 29.5332 59.5489 32.573C63.2379 35.2549 63.9987 38.8041 64.1548 40.2056C64.2124 40.7248 63.8365 41.1912 63.3155 41.2469C62.794 41.3024 62.3249 40.9264 62.2672 40.4073C62.1391 39.2557 61.509 36.3356 58.4329 34.0992C55.0571 31.6442 49.8542 30.9183 43.3124 31.9714C52.1298 37.5754 53.9604 42.0868 53.8943 44.9387C53.8821 45.4607 53.4474 45.8728 52.9231 45.8594C52.8126 45.8563 52.707 45.8349 52.6089 45.7976L52.6087 45.7981Z" fill="#371A45"/>
<path d="M63.6386 69.2685C63.2624 73.8853 58.6561 81.9255 42.0333 78.949C41.8152 78.9099 41.7575 78.6225 41.9439 78.5048C43.9755 77.2225 53.5624 70.9959 53.2398 64.876" fill="#D25658"/>
<path d="M42.0328 78.9498C41.8147 78.9091 41.7576 78.623 41.9442 78.5049C42.9839 77.8475 46.0068 75.8935 48.6649 73.3203C51.1774 70.8898 53.3629 67.9046 53.2409 64.9416C53.2405 64.9201 53.2384 64.8974 53.2385 64.8761L53.3016 64.9022L63.6373 69.2674C63.5317 70.5636 63.0932 72.1294 62.1472 73.645C59.7295 77.5306 53.9914 81.0896 42.0328 78.9498Z" fill="#8A43BA"/>
<g opacity="0.35">
<path d="M48.6647 73.3211C51.1772 70.8906 53.3627 67.9054 53.2408 64.9424C53.2611 64.9299 53.281 64.9155 53.3012 64.9035L63.6369 69.2687C63.5313 70.5648 63.0928 72.1307 62.1468 73.6463C58.8435 74.8068 54.4227 75.0233 48.6645 73.3216L48.6647 73.3211Z" fill="#371A45"/>
</g>
<path d="M41.6488 79.8201C41.2693 79.6758 40.9868 79.3484 40.9048 78.9386C40.8078 78.4536 41.0154 77.9696 41.4334 77.7061C44.0514 76.0533 52.5718 70.2469 52.2912 64.9233C52.2636 64.4012 52.6656 63.958 53.1897 63.9324C53.7131 63.907 54.1601 64.3087 54.1877 64.8309C54.473 70.2481 48.0222 75.5364 43.9806 78.3015C50.4654 79.1905 55.6061 78.3332 58.9214 75.7935C62.1205 73.3437 62.616 70.1193 62.6919 69.1894C62.7342 68.6687 63.1923 68.2826 63.7152 68.3265C64.2376 68.3702 64.6273 68.8281 64.5851 69.3488C64.4674 70.791 63.7935 74.4523 60.0823 77.2944C55.9764 80.4394 49.8478 81.3095 41.868 79.8805C41.792 79.8671 41.7189 79.8462 41.649 79.8196L41.6488 79.8201ZM42.1977 78.019C42.1977 78.019 42.1972 78.0188 42.1967 78.0186C42.1967 78.0186 42.1972 78.0188 42.1977 78.019Z" fill="#371A45"/>
<path d="M141.144 54.0612C141.144 54.0612 129.273 74.7961 95.3712 77.5043C66.4897 79.8103 51.746 67.6606 51.746 67.6606C49.7582 62.5415 48.9775 57.0801 49.4038 51.6931C49.653 48.5646 50.3091 45.4616 51.3752 42.4621C51.3752 42.4621 57.7922 36.8929 70.683 33.6932C71.1263 33.5834 71.5792 33.4752 72.038 33.3714C77.0276 32.2393 82.9219 31.4741 89.7237 31.4966C91.3283 31.4999 92.9842 31.5504 94.6904 31.6478C94.7581 31.6505 94.8247 31.6561 94.891 31.661C101.77 32.0692 107.763 33.2394 112.945 34.8404C113.112 34.8909 113.275 34.9427 113.438 34.9946C133.382 41.3321 141.143 54.0608 141.143 54.0608L141.144 54.0612Z" fill="white"/>
<path d="M117.294 72.7097C119.701 60.6326 119.517 48.1724 116.755 36.1507C134.438 42.7386 141.401 54.159 141.401 54.159C141.401 54.159 134.778 65.7285 117.294 72.7097Z" fill="#8A43BA"/>
<g opacity="0.6">
<path d="M140.515 55.3885C141.179 54.4683 141.49 53.9256 141.49 53.9256C141.49 53.9256 134.527 42.5054 116.844 35.9173C117.022 36.6934 117.189 37.4715 117.346 38.251C132.22 44.1385 139.133 53.361 140.515 55.3885Z" fill="white"/>
</g>
<path d="M116.021 74.2385L116.363 72.5227C118.76 60.4967 118.58 48.3299 115.829 36.3589L115.437 34.6508L117.085 35.2649C131.103 40.4836 138.528 48.7498 141.073 52.0605C142.031 53.3069 142.055 54.9965 141.135 56.2643C138.689 59.6303 131.505 68.0559 117.65 73.5883L116.021 74.239L116.021 74.2385ZM118.06 37.6717C120.382 48.7682 120.548 60.0171 118.555 71.1602C130.895 65.8263 137.342 58.2519 139.595 55.1518C140.021 54.5654 140.009 53.7839 139.566 53.207C137.223 50.1575 130.553 42.7286 118.06 37.6721L118.06 37.6717Z" fill="#371A45"/>
<path d="M62.4909 74.3683C55.2381 71.6113 51.5551 68.6127 51.401 68.4858L51.2092 68.328L51.1194 68.0967C49.5145 63.9617 48.6671 59.6207 48.6015 55.1944C48.5364 50.7672 49.2548 46.4098 50.7379 42.2427L50.8208 42.0093L51.008 41.8471C51.1595 41.7156 54.806 38.5914 62.0809 35.6549C68.7513 32.9625 79.8769 29.9351 95.0008 30.8026C102.93 31.257 110.36 32.7584 117.085 35.265L117.566 35.4441L117.68 35.9427C120.485 48.1459 120.674 60.5497 118.243 72.8097L118.239 73.3527L117.651 73.5901C111.002 76.2461 103.619 77.9134 95.7056 78.5451C80.6124 79.7507 69.4007 76.9725 62.6529 74.4293C62.5989 74.4088 62.5445 74.3881 62.4911 74.3678L62.4909 74.3683ZM52.7969 67.1765C53.632 67.8101 57.2143 70.38 63.4152 72.6965C69.9658 75.1524 80.8576 77.8331 95.5476 76.66C103.081 76.0584 110.115 74.4986 116.462 72.023C118.723 60.3273 118.548 48.5031 115.943 36.8596C109.525 34.526 102.447 33.1244 94.8986 32.6913C68.3971 31.1711 54.1939 41.7298 52.4425 43.1256C51.0935 47.0062 50.4401 51.0582 50.5014 55.1737C50.5624 59.2884 51.3348 63.3254 52.7978 67.1769L52.7969 67.1765Z" fill="#371A45"/>
<path d="M46.8885 67.5631C45.1449 66.9003 43.7903 65.4625 43.2526 63.6441C41.6353 58.1746 41.5495 52.3738 43.0049 46.8701C43.5687 44.7387 45.2561 43.0975 47.4093 42.5882L51.4111 41.6409C51.9212 41.5208 52.4337 41.8347 52.5568 42.3429C52.6798 42.8512 52.3658 43.3609 51.856 43.4817L47.8542 44.429C46.3811 44.7776 45.2263 45.9002 44.8412 47.3582C43.4739 52.5286 43.5545 57.9774 45.0737 63.116C45.5022 64.5649 46.6897 65.661 48.1723 65.9768L52.2006 66.834C52.7128 66.9454 53.0422 67.4461 52.9345 67.9569C52.8268 68.4676 52.3229 68.7931 51.8098 68.684L47.7815 67.8268C47.4746 67.7614 47.1759 67.6729 46.8879 67.5634L46.8885 67.5631Z" fill="#371A45"/>
<g opacity="0.35">
<path d="M104.848 67.8947C111.423 64.9622 114.348 57.267 111.381 50.7072C108.414 44.1473 100.679 41.2068 94.1034 44.1393C87.5281 47.0719 84.6029 54.767 87.5699 61.3269C90.5368 67.8868 98.2723 70.8273 104.848 67.8947Z" fill="#371A45"/>
</g>
<path d="M96.1618 65.5464C102.229 67.8528 109.008 64.8295 111.303 58.7936C113.597 52.7577 110.538 45.9949 104.471 43.6884C98.4031 41.382 91.6244 44.4053 89.3299 50.4412C87.0355 56.4771 90.0942 63.2399 96.1618 65.5464Z" fill="#8A43BA"/>
<g opacity="0.6">
<path d="M111.787 56.9744C111.802 56.7088 111.808 56.4424 111.805 56.1735C111.71 49.7131 106.373 44.5344 99.888 44.606C94.1703 44.6692 89.4669 48.7926 88.4983 54.1951C88.8139 48.0952 93.8344 43.2208 100.054 43.1507C106.541 43.0794 111.876 48.2578 111.973 54.72C111.983 55.4904 111.92 56.245 111.788 56.9741L111.787 56.9744Z" fill="white"/>
</g>
<g opacity="0.35">
<path d="M100.488 66.3157C94.004 66.3877 88.6668 61.2115 88.5713 54.7497C88.5422 52.7176 89.0345 50.801 89.926 49.1254C89.7454 49.9705 89.6553 50.8474 89.6683 51.7496C89.7633 58.2112 95.0988 63.3905 101.585 63.3184C106.033 63.2683 109.867 60.7597 111.803 57.1073C110.688 62.3206 106.072 66.2527 100.488 66.3157Z" fill="#371A45"/>
</g>
<path d="M95.8207 66.4352C94.2169 65.8256 92.7394 64.889 91.4723 63.6591C89.0392 61.2975 87.6722 58.1368 87.6225 54.7591C87.5729 51.3814 88.8461 48.1915 91.2085 45.776C93.5708 43.3611 96.7393 42.01 100.13 41.9723C103.521 41.9345 106.728 43.2139 109.161 45.5755C111.594 47.9369 112.961 51.0978 113.011 54.4755C113.06 57.8527 111.787 61.0431 109.425 63.4581C107.062 65.8735 103.894 67.2242 100.503 67.2619C98.8792 67.2801 97.2962 66.9956 95.8214 66.4349L95.8207 66.4352ZM104.139 44.5671C102.885 44.0901 101.539 43.8484 100.158 43.8638C97.2742 43.8962 94.5801 45.0447 92.5709 47.0988C90.5618 49.1524 89.4789 51.8656 89.5214 54.738C89.564 57.6105 90.7264 60.2982 92.7955 62.3067C94.8646 64.3152 97.5918 65.4031 100.475 65.3708C103.359 65.3384 106.053 64.1899 108.062 62.1358C110.071 60.0818 111.154 57.369 111.112 54.4965C111.069 51.6241 109.907 48.9364 107.838 46.9279C106.76 45.8817 105.504 45.0852 104.14 44.5667L104.139 44.5671Z" fill="#371A45"/>
<path d="M103.528 61.2716C107.289 59.5938 108.963 55.1914 107.265 51.4384C105.568 47.6855 101.142 46.0032 97.3807 47.6809C93.6189 49.3587 91.9454 53.7611 93.6428 57.5141C95.3402 61.267 99.7657 62.9493 103.528 61.2716Z" fill="#6BD6F0"/>
<g opacity="0.3">
<path d="M100.564 61.9205C96.4368 61.9668 93.0437 58.6715 92.9829 54.5605C92.9689 53.6708 93.1132 52.8139 93.3915 52.0198C93.3891 52.1022 93.3895 52.1846 93.3899 52.2697C93.4507 56.3806 96.8437 59.6759 100.971 59.6296C104.204 59.5946 106.926 57.5183 107.925 54.6448C107.852 58.6402 104.605 61.8748 100.563 61.9203L100.564 61.9205Z" fill="white"/>
</g>
<g opacity="0.35">
<path d="M107.383 57.521C107.386 57.3933 107.389 57.2657 107.387 57.1361C107.326 53.0252 103.933 49.7299 99.8058 49.7762C96.6999 49.8101 94.063 51.7286 92.978 54.4277C93.1219 50.4928 96.3402 47.3314 100.337 47.2869C104.462 47.2413 107.857 50.5337 107.918 54.6446C107.931 55.6618 107.742 56.6348 107.383 57.5214L107.383 57.521Z" fill="#371A45"/>
</g>
<path d="M97.4719 62.3163C96.408 61.9119 95.4282 61.2906 94.5872 60.4747C92.9735 58.908 92.0664 56.8114 92.0329 54.5705C91.9647 49.945 95.6866 46.1397 100.33 46.0878C104.973 46.0355 108.806 49.7565 108.875 54.3822C108.943 59.0076 105.221 62.8127 100.578 62.8646C99.4998 62.8768 98.45 62.6881 97.4715 62.3162L97.4719 62.3163ZM102.755 48.404C102.01 48.121 101.202 47.9696 100.359 47.9793C96.7625 48.0196 93.8796 50.9667 93.9325 54.5491C93.9579 56.2844 94.6607 57.9086 95.9106 59.1218C97.1603 60.3355 98.8082 60.993 100.55 60.9732C104.147 60.933 107.03 57.9858 106.977 54.4034C106.936 51.661 105.186 49.3284 102.755 48.404Z" fill="#371A45"/>
<g opacity="0.2">
<path d="M128.931 48.2401C129.509 46.56 126.537 43.9412 124.57 43.2111C122.532 42.4546 121.178 42.3382 120.797 43.313C120.266 44.6742 121.665 45.7573 123.518 46.5431C124.829 47.099 128.217 50.3134 128.931 48.2401Z" fill="white"/>
</g>
<g opacity="0.2">
<path d="M133.225 52.2728C133.663 50.7928 132.424 48.7878 131.514 48.3174C130.571 47.8303 129.909 47.8363 129.632 48.6988C129.246 49.9031 129.843 50.7192 130.692 51.2454C131.293 51.6178 132.685 54.0996 133.225 52.2728Z" fill="white"/>
</g>
<g opacity="0.35">
<path d="M52.1569 65.9466C52.1569 65.9466 66.9001 78.0962 95.7797 75.791C125.109 73.4486 137.948 57.6157 140.878 53.3867C140.966 53.5093 141.042 53.6189 141.108 53.7143C140.842 53.3282 140.394 52.7065 139.746 51.9101C133.473 58.2545 120.777 67.4732 98.9437 69.2176C85.307 70.3061 74.8221 68.1721 67.5536 65.6163C58.27 62.3517 52.2337 53.3384 52.9652 43.5725C52.9691 43.5185 52.9735 43.4646 52.9777 43.4112C53.0082 43.0243 53.0473 42.6376 53.0907 42.2508C53.0992 42.0874 53.1047 41.9245 53.117 41.7609C53.1209 41.7069 53.1252 41.653 53.1294 41.5996C53.1341 41.5421 53.141 41.4843 53.1457 41.4268C53.1625 41.4151 53.1787 41.4036 53.1962 41.3915C52.1549 42.1098 51.6334 42.5621 51.6334 42.5621C50.6908 45.2112 50.0705 47.9406 49.7671 50.6976C49.4605 55.8513 50.2557 61.0543 52.1565 65.9475L52.1569 65.9466Z" fill="#371A45"/>
</g>
<path d="M53.2373 59.4911C47.4481 59.5545 41.6804 55.0531 41.6804 55.0531C41.6804 55.0531 41.7018 55.0351 41.7417 55.0049C42.3649 54.508 47.6647 50.4201 53.1011 50.3568C58.3182 50.2971 62.5656 54.0085 63.3099 54.7C63.3864 54.7713 63.4258 54.8103 63.4258 54.8103C63.4258 54.8103 58.9869 59.4299 53.2373 59.4911Z" fill="#8A43BA"/>
<g opacity="0.6">
<path d="M63.5725 55.1328C63.5725 55.1328 63.3019 55.4139 62.8102 55.8374C61.3461 54.617 57.6006 51.92 53.1454 51.9713C48.7737 52.0217 44.4905 54.6753 42.6562 55.9685C42.1257 55.6099 41.8258 55.3762 41.8258 55.3762C41.8258 55.3762 41.8486 55.3587 41.8879 55.3272C42.5117 54.8316 47.8115 50.7438 53.2479 50.6804C58.4647 50.62 62.7107 54.3309 63.4555 55.0226C63.5332 55.0949 63.573 55.1329 63.573 55.1329L63.5725 55.1328Z" fill="white"/>
</g>
<g opacity="0.35">
<path d="M53.237 59.4911C47.4479 59.5544 41.6802 55.0531 41.6802 55.0531C41.6802 55.0531 41.7015 55.035 41.7415 55.0048L63.3097 54.6999C63.3862 54.7712 63.4256 54.8102 63.4256 54.8102C63.4256 54.8102 58.9874 59.4295 53.2377 59.4908L53.237 59.4911Z" fill="#8A43BA"/>
</g>
<path d="M47.3831 59.2762C43.8766 57.9432 41.259 55.9243 41.0958 55.7972L40.1646 55.0704L41.0742 54.3229C41.3147 54.1254 47.0346 49.4816 53.0875 49.4123C59.1667 49.3428 63.894 53.9442 64.0922 54.1403L64.7553 54.7956L64.1118 55.4658C63.9192 55.666 59.3299 60.3721 53.2498 60.4381C51.2016 60.4607 49.1758 59.9582 47.3829 59.2766L47.3831 59.2762ZM43.2986 55.0344C45.1549 56.257 49.23 58.5896 53.2227 58.5462C57.2176 58.5026 60.5794 56.0468 62.0056 54.8275C60.541 53.6411 57.097 51.2579 53.1164 51.3037C49.1142 51.3494 45.1164 53.7707 43.2991 55.0346L43.2986 55.0344Z" fill="#371A45"/>
</g>
<defs>
<clipPath id="clip0_255_3542">
<rect width="129.304" height="68.4552" fill="white" transform="translate(24.3242) rotate(20.8134)"/>
</clipPath>
</defs>
</svg>
